<?xml version="1.0" encoding="utf-8" standalone="no"?>
<!DOCTYPE svg PUBLIC "-//W3C//DTD SVG 1.1//EN"
  "http://www.w3.org/Graphics/SVG/1.1/DTD/svg11.dtd">
<svg height="349.2pt" version="1.1" viewBox="0 0 690.48 349.2" width="690.48pt" xmlns="http://www.w3.org/2000/svg" xmlns:xlink="http://www.w3.org/1999/xlink">
 <metadata>
  <rdf:RDF xmlns:cc="http://creativecommons.org/ns#" xmlns:dc="http://purl.org/dc/elements/1.1/" xmlns:rdf="http://www.w3.org/1999/02/22-rdf-syntax-ns#">
   <cc:Work>
    <dc:type rdf:resource="http://purl.org/dc/dcmitype/StillImage"/>
    <dc:date>2023-10-25T13:35:27.299947</dc:date>
    <dc:format>image/svg+xml</dc:format>
    <dc:creator>
     <cc:Agent>
      <dc:title>Matplotlib v3.4.3, https://matplotlib.org/</dc:title>
     </cc:Agent>
    </dc:creator>
   </cc:Work>
  </rdf:RDF>
 </metadata>
 <defs>
  <style type="text/css">*{stroke-linecap:butt;stroke-linejoin:round;}</style>
 </defs>
 <g id="figure_1">
  <g id="patch_1">
   <path d="M 0 349.2 
L 690.48 349.2 
L 690.48 0 
L 0 0 
z
" style="fill:#ffffff;"/>
  </g>
  <g id="axes_1">
   <g id="patch_2">
    <path d="M 86.31 310.788 
L 621.432 310.788 
L 621.432 41.904 
L 86.31 41.904 
z
" style="fill:#ffffff;"/>
   </g>
   <g id="PathCollection_1">
    <defs>
     <path d="M -1.581139 1.581139 
L 1.581139 1.581139 
L 1.581139 -1.581139 
L -1.581139 -1.581139 
z
" id="ma1b59e8ea8" style="stroke:#0000ff;"/>
    </defs>
    <g clip-path="url(#p293f8c5cf7)">
     <use style="fill:#0000ff;stroke:#0000ff;" x="85.596759" xlink:href="#ma1b59e8ea8" y="310.788"/>
     <use style="fill:#0000ff;stroke:#0000ff;" x="97.306678" xlink:href="#ma1b59e8ea8" y="261.323926"/>
     <use style="fill:#0000ff;stroke:#0000ff;" x="109.016597" xlink:href="#ma1b59e8ea8" y="222.164867"/>
     <use style="fill:#0000ff;stroke:#0000ff;" x="120.726516" xlink:href="#ma1b59e8ea8" y="189.188818"/>
     <use style="fill:#0000ff;stroke:#0000ff;" x="132.436435" xlink:href="#ma1b59e8ea8" y="164.456781"/>
     <use style="fill:#0000ff;stroke:#0000ff;" x="144.146354" xlink:href="#ma1b59e8ea8" y="143.84675"/>
     <use style="fill:#0000ff;stroke:#0000ff;" x="155.856272" xlink:href="#ma1b59e8ea8" y="127.358725"/>
     <use style="fill:#0000ff;stroke:#0000ff;" x="167.566191" xlink:href="#ma1b59e8ea8" y="112.931703"/>
     <use style="fill:#0000ff;stroke:#0000ff;" x="179.27611" xlink:href="#ma1b59e8ea8" y="102.626688"/>
     <use style="fill:#0000ff;stroke:#0000ff;" x="190.986029" xlink:href="#ma1b59e8ea8" y="94.382676"/>
     <use style="fill:#0000ff;stroke:#0000ff;" x="202.695948" xlink:href="#ma1b59e8ea8" y="86.138663"/>
     <use style="fill:#0000ff;stroke:#0000ff;" x="214.405867" xlink:href="#ma1b59e8ea8" y="79.955654"/>
     <use style="fill:#0000ff;stroke:#0000ff;" x="226.115786" xlink:href="#ma1b59e8ea8" y="75.833648"/>
     <use style="fill:#0000ff;stroke:#0000ff;" x="237.825704" xlink:href="#ma1b59e8ea8" y="71.711642"/>
     <use style="fill:#0000ff;stroke:#0000ff;" x="249.535623" xlink:href="#ma1b59e8ea8" y="67.589636"/>
     <use style="fill:#0000ff;stroke:#0000ff;" x="261.245542" xlink:href="#ma1b59e8ea8" y="65.528632"/>
     <use style="fill:#0000ff;stroke:#0000ff;" x="272.955461" xlink:href="#ma1b59e8ea8" y="63.467629"/>
     <use style="fill:#0000ff;stroke:#0000ff;" x="284.66538" xlink:href="#ma1b59e8ea8" y="61.406626"/>
     <use style="fill:#0000ff;stroke:#0000ff;" x="296.375299" xlink:href="#ma1b59e8ea8" y="61.406626"/>
     <use style="fill:#0000ff;stroke:#0000ff;" x="308.085217" xlink:href="#ma1b59e8ea8" y="59.345623"/>
     <use style="fill:#0000ff;stroke:#0000ff;" x="319.795136" xlink:href="#ma1b59e8ea8" y="94.382676"/>
     <use style="fill:#0000ff;stroke:#0000ff;" x="331.505055" xlink:href="#ma1b59e8ea8" y="129.419728"/>
     <use style="fill:#0000ff;stroke:#0000ff;" x="343.214974" xlink:href="#ma1b59e8ea8" y="160.334775"/>
     <use style="fill:#0000ff;stroke:#0000ff;" x="354.924893" xlink:href="#ma1b59e8ea8" y="183.005808"/>
     <use style="fill:#0000ff;stroke:#0000ff;" x="366.634812" xlink:href="#ma1b59e8ea8" y="203.615839"/>
     <use style="fill:#0000ff;stroke:#0000ff;" x="378.34473" xlink:href="#ma1b59e8ea8" y="220.103864"/>
     <use style="fill:#0000ff;stroke:#0000ff;" x="390.054649" xlink:href="#ma1b59e8ea8" y="234.530886"/>
     <use style="fill:#0000ff;stroke:#0000ff;" x="401.764568" xlink:href="#ma1b59e8ea8" y="246.896904"/>
     <use style="fill:#0000ff;stroke:#0000ff;" x="413.474487" xlink:href="#ma1b59e8ea8" y="257.20192"/>
     <use style="fill:#0000ff;stroke:#0000ff;" x="425.184406" xlink:href="#ma1b59e8ea8" y="265.445932"/>
     <use style="fill:#0000ff;stroke:#0000ff;" x="436.894325" xlink:href="#ma1b59e8ea8" y="273.689944"/>
     <use style="fill:#0000ff;stroke:#0000ff;" x="448.604243" xlink:href="#ma1b59e8ea8" y="279.872954"/>
     <use style="fill:#0000ff;stroke:#0000ff;" x="460.314162" xlink:href="#ma1b59e8ea8" y="286.055963"/>
     <use style="fill:#0000ff;stroke:#0000ff;" x="472.024081" xlink:href="#ma1b59e8ea8" y="288.116966"/>
     <use style="fill:#0000ff;stroke:#0000ff;" x="483.734" xlink:href="#ma1b59e8ea8" y="292.238972"/>
     <use style="fill:#0000ff;stroke:#0000ff;" x="495.443919" xlink:href="#ma1b59e8ea8" y="296.360978"/>
     <use style="fill:#0000ff;stroke:#0000ff;" x="507.153838" xlink:href="#ma1b59e8ea8" y="298.421981"/>
     <use style="fill:#0000ff;stroke:#0000ff;" x="518.863756" xlink:href="#ma1b59e8ea8" y="300.482985"/>
     <use style="fill:#0000ff;stroke:#0000ff;" x="530.573675" xlink:href="#ma1b59e8ea8" y="302.543988"/>
     <use style="fill:#0000ff;stroke:#0000ff;" x="542.283594" xlink:href="#ma1b59e8ea8" y="304.604991"/>
     <use style="fill:#0000ff;stroke:#0000ff;" x="553.993513" xlink:href="#ma1b59e8ea8" y="304.604991"/>
     <use style="fill:#0000ff;stroke:#0000ff;" x="565.703432" xlink:href="#ma1b59e8ea8" y="306.665994"/>
     <use style="fill:#0000ff;stroke:#0000ff;" x="577.413351" xlink:href="#ma1b59e8ea8" y="308.726997"/>
     <use style="fill:#0000ff;stroke:#0000ff;" x="589.123269" xlink:href="#ma1b59e8ea8" y="308.726997"/>
     <use style="fill:#0000ff;stroke:#0000ff;" x="600.833188" xlink:href="#ma1b59e8ea8" y="308.726997"/>
    </g>
   </g>
   <g id="matplotlib.axis_1">
    <g id="xtick_1">
     <g id="line2d_1">
      <path clip-path="url(#p293f8c5cf7)" d="M 192.050567 310.788 
L 192.050567 41.904 
" style="fill:none;stroke:#000000;stroke-linecap:square;stroke-width:0.8;"/>
     </g>
     <g id="line2d_2">
      <defs>
       <path d="M 0 0 
L 0 3.5 
" id="m4a093047f1" style="stroke:#000000;stroke-width:0.8;"/>
      </defs>
      <g>
       <use style="stroke:#000000;stroke-width:0.8;" x="192.050567" xlink:href="#m4a093047f1" y="310.788"/>
      </g>
     </g>
     <g id="text_1">
      <!-- 2 -->
      <g transform="translate(188.869317 325.386437)scale(0.1 -0.1)">
       <defs>
        <path d="M 1228 531 
L 3431 531 
L 3431 0 
L 469 0 
L 469 531 
Q 828 903 1448 1529 
Q 2069 2156 2228 2338 
Q 2531 2678 2651 2914 
Q 2772 3150 2772 3378 
Q 2772 3750 2511 3984 
Q 2250 4219 1831 4219 
Q 1534 4219 1204 4116 
Q 875 4013 500 3803 
L 500 4441 
Q 881 4594 1212 4672 
Q 1544 4750 1819 4750 
Q 2544 4750 2975 4387 
Q 3406 4025 3406 3419 
Q 3406 3131 3298 2873 
Q 3191 2616 2906 2266 
Q 2828 2175 2409 1742 
Q 1991 1309 1228 531 
z
" id="DejaVuSans-32" transform="scale(0.015625)"/>
       </defs>
       <use xlink:href="#DejaVuSans-32"/>
      </g>
     </g>
    </g>
    <g id="xtick_2">
     <g id="line2d_3">
      <path clip-path="url(#p293f8c5cf7)" d="M 298.504375 310.788 
L 298.504375 41.904 
" style="fill:none;stroke:#000000;stroke-linecap:square;stroke-width:0.8;"/>
     </g>
     <g id="line2d_4">
      <g>
       <use style="stroke:#000000;stroke-width:0.8;" x="298.504375" xlink:href="#m4a093047f1" y="310.788"/>
      </g>
     </g>
     <g id="text_2">
      <!-- 4 -->
      <g transform="translate(295.323125 325.386437)scale(0.1 -0.1)">
       <defs>
        <path d="M 2419 4116 
L 825 1625 
L 2419 1625 
L 2419 4116 
z
M 2253 4666 
L 3047 4666 
L 3047 1625 
L 3713 1625 
L 3713 1100 
L 3047 1100 
L 3047 0 
L 2419 0 
L 2419 1100 
L 313 1100 
L 313 1709 
L 2253 4666 
z
" id="DejaVuSans-34" transform="scale(0.015625)"/>
       </defs>
       <use xlink:href="#DejaVuSans-34"/>
      </g>
     </g>
    </g>
    <g id="xtick_3">
     <g id="line2d_5">
      <path clip-path="url(#p293f8c5cf7)" d="M 404.958182 310.788 
L 404.958182 41.904 
" style="fill:none;stroke:#000000;stroke-linecap:square;stroke-width:0.8;"/>
     </g>
     <g id="line2d_6">
      <g>
       <use style="stroke:#000000;stroke-width:0.8;" x="404.958182" xlink:href="#m4a093047f1" y="310.788"/>
      </g>
     </g>
     <g id="text_3">
      <!-- 6 -->
      <g transform="translate(401.776932 325.386437)scale(0.1 -0.1)">
       <defs>
        <path d="M 2113 2584 
Q 1688 2584 1439 2293 
Q 1191 2003 1191 1497 
Q 1191 994 1439 701 
Q 1688 409 2113 409 
Q 2538 409 2786 701 
Q 3034 994 3034 1497 
Q 3034 2003 2786 2293 
Q 2538 2584 2113 2584 
z
M 3366 4563 
L 3366 3988 
Q 3128 4100 2886 4159 
Q 2644 4219 2406 4219 
Q 1781 4219 1451 3797 
Q 1122 3375 1075 2522 
Q 1259 2794 1537 2939 
Q 1816 3084 2150 3084 
Q 2853 3084 3261 2657 
Q 3669 2231 3669 1497 
Q 3669 778 3244 343 
Q 2819 -91 2113 -91 
Q 1303 -91 875 529 
Q 447 1150 447 2328 
Q 447 3434 972 4092 
Q 1497 4750 2381 4750 
Q 2619 4750 2861 4703 
Q 3103 4656 3366 4563 
z
" id="DejaVuSans-36" transform="scale(0.015625)"/>
       </defs>
       <use xlink:href="#DejaVuSans-36"/>
      </g>
     </g>
    </g>
    <g id="xtick_4">
     <g id="line2d_7">
      <path clip-path="url(#p293f8c5cf7)" d="M 511.41199 310.788 
L 511.41199 41.904 
" style="fill:none;stroke:#000000;stroke-linecap:square;stroke-width:0.8;"/>
     </g>
     <g id="line2d_8">
      <g>
       <use style="stroke:#000000;stroke-width:0.8;" x="511.41199" xlink:href="#m4a093047f1" y="310.788"/>
      </g>
     </g>
     <g id="text_4">
      <!-- 8 -->
      <g transform="translate(508.23074 325.386437)scale(0.1 -0.1)">
       <defs>
        <path d="M 2034 2216 
Q 1584 2216 1326 1975 
Q 1069 1734 1069 1313 
Q 1069 891 1326 650 
Q 1584 409 2034 409 
Q 2484 409 2743 651 
Q 3003 894 3003 1313 
Q 3003 1734 2745 1975 
Q 2488 2216 2034 2216 
z
M 1403 2484 
Q 997 2584 770 2862 
Q 544 3141 544 3541 
Q 544 4100 942 4425 
Q 1341 4750 2034 4750 
Q 2731 4750 3128 4425 
Q 3525 4100 3525 3541 
Q 3525 3141 3298 2862 
Q 3072 2584 2669 2484 
Q 3125 2378 3379 2068 
Q 3634 1759 3634 1313 
Q 3634 634 3220 271 
Q 2806 -91 2034 -91 
Q 1263 -91 848 271 
Q 434 634 434 1313 
Q 434 1759 690 2068 
Q 947 2378 1403 2484 
z
M 1172 3481 
Q 1172 3119 1398 2916 
Q 1625 2713 2034 2713 
Q 2441 2713 2670 2916 
Q 2900 3119 2900 3481 
Q 2900 3844 2670 4047 
Q 2441 4250 2034 4250 
Q 1625 4250 1398 4047 
Q 1172 3844 1172 3481 
z
" id="DejaVuSans-38" transform="scale(0.015625)"/>
       </defs>
       <use xlink:href="#DejaVuSans-38"/>
      </g>
     </g>
    </g>
    <g id="xtick_5">
     <g id="line2d_9">
      <path clip-path="url(#p293f8c5cf7)" d="M 617.865797 310.788 
L 617.865797 41.904 
" style="fill:none;stroke:#000000;stroke-linecap:square;stroke-width:0.8;"/>
     </g>
     <g id="line2d_10">
      <g>
       <use style="stroke:#000000;stroke-width:0.8;" x="617.865797" xlink:href="#m4a093047f1" y="310.788"/>
      </g>
     </g>
     <g id="text_5">
      <!-- 10 -->
      <g transform="translate(611.503297 325.386437)scale(0.1 -0.1)">
       <defs>
        <path d="M 794 531 
L 1825 531 
L 1825 4091 
L 703 3866 
L 703 4441 
L 1819 4666 
L 2450 4666 
L 2450 531 
L 3481 531 
L 3481 0 
L 794 0 
L 794 531 
z
" id="DejaVuSans-31" transform="scale(0.015625)"/>
        <path d="M 2034 4250 
Q 1547 4250 1301 3770 
Q 1056 3291 1056 2328 
Q 1056 1369 1301 889 
Q 1547 409 2034 409 
Q 2525 409 2770 889 
Q 3016 1369 3016 2328 
Q 3016 3291 2770 3770 
Q 2525 4250 2034 4250 
z
M 2034 4750 
Q 2819 4750 3233 4129 
Q 3647 3509 3647 2328 
Q 3647 1150 3233 529 
Q 2819 -91 2034 -91 
Q 1250 -91 836 529 
Q 422 1150 422 2328 
Q 422 3509 836 4129 
Q 1250 4750 2034 4750 
z
" id="DejaVuSans-30" transform="scale(0.015625)"/>
       </defs>
       <use xlink:href="#DejaVuSans-31"/>
       <use x="63.623047" xlink:href="#DejaVuSans-30"/>
      </g>
     </g>
    </g>
    <g id="xtick_6">
     <g id="line2d_11">
      <path clip-path="url(#p293f8c5cf7)" d="M 112.210211 310.788 
L 112.210211 41.904 
" style="fill:none;stroke:#808080;stroke-dasharray:0.8,1.32;stroke-dashoffset:0;stroke-width:0.8;"/>
     </g>
     <g id="line2d_12">
      <defs>
       <path d="M 0 0 
L 0 2 
" id="maa40538ad9" style="stroke:#000000;stroke-width:0.6;"/>
      </defs>
      <g>
       <use style="stroke:#000000;stroke-width:0.6;" x="112.210211" xlink:href="#maa40538ad9" y="310.788"/>
      </g>
     </g>
    </g>
    <g id="xtick_7">
     <g id="line2d_13">
      <path clip-path="url(#p293f8c5cf7)" d="M 138.823663 310.788 
L 138.823663 41.904 
" style="fill:none;stroke:#808080;stroke-dasharray:0.8,1.32;stroke-dashoffset:0;stroke-width:0.8;"/>
     </g>
     <g id="line2d_14">
      <g>
       <use style="stroke:#000000;stroke-width:0.6;" x="138.823663" xlink:href="#maa40538ad9" y="310.788"/>
      </g>
     </g>
    </g>
    <g id="xtick_8">
     <g id="line2d_15">
      <path clip-path="url(#p293f8c5cf7)" d="M 165.437115 310.788 
L 165.437115 41.904 
" style="fill:none;stroke:#808080;stroke-dasharray:0.8,1.32;stroke-dashoffset:0;stroke-width:0.8;"/>
     </g>
     <g id="line2d_16">
      <g>
       <use style="stroke:#000000;stroke-width:0.6;" x="165.437115" xlink:href="#maa40538ad9" y="310.788"/>
      </g>
     </g>
    </g>
    <g id="xtick_9">
     <g id="line2d_17">
      <path clip-path="url(#p293f8c5cf7)" d="M 218.664019 310.788 
L 218.664019 41.904 
" style="fill:none;stroke:#808080;stroke-dasharray:0.8,1.32;stroke-dashoffset:0;stroke-width:0.8;"/>
     </g>
     <g id="line2d_18">
      <g>
       <use style="stroke:#000000;stroke-width:0.6;" x="218.664019" xlink:href="#maa40538ad9" y="310.788"/>
      </g>
     </g>
    </g>
    <g id="xtick_10">
     <g id="line2d_19">
      <path clip-path="url(#p293f8c5cf7)" d="M 245.277471 310.788 
L 245.277471 41.904 
" style="fill:none;stroke:#808080;stroke-dasharray:0.8,1.32;stroke-dashoffset:0;stroke-width:0.8;"/>
     </g>
     <g id="line2d_20">
      <g>
       <use style="stroke:#000000;stroke-width:0.6;" x="245.277471" xlink:href="#maa40538ad9" y="310.788"/>
      </g>
     </g>
    </g>
    <g id="xtick_11">
     <g id="line2d_21">
      <path clip-path="url(#p293f8c5cf7)" d="M 271.890923 310.788 
L 271.890923 41.904 
" style="fill:none;stroke:#808080;stroke-dasharray:0.8,1.32;stroke-dashoffset:0;stroke-width:0.8;"/>
     </g>
     <g id="line2d_22">
      <g>
       <use style="stroke:#000000;stroke-width:0.6;" x="271.890923" xlink:href="#maa40538ad9" y="310.788"/>
      </g>
     </g>
    </g>
    <g id="xtick_12">
     <g id="line2d_23">
      <path clip-path="url(#p293f8c5cf7)" d="M 325.117827 310.788 
L 325.117827 41.904 
" style="fill:none;stroke:#808080;stroke-dasharray:0.8,1.32;stroke-dashoffset:0;stroke-width:0.8;"/>
     </g>
     <g id="line2d_24">
      <g>
       <use style="stroke:#000000;stroke-width:0.6;" x="325.117827" xlink:href="#maa40538ad9" y="310.788"/>
      </g>
     </g>
    </g>
    <g id="xtick_13">
     <g id="line2d_25">
      <path clip-path="url(#p293f8c5cf7)" d="M 351.731278 310.788 
L 351.731278 41.904 
" style="fill:none;stroke:#808080;stroke-dasharray:0.8,1.32;stroke-dashoffset:0;stroke-width:0.8;"/>
     </g>
     <g id="line2d_26">
      <g>
       <use style="stroke:#000000;stroke-width:0.6;" x="351.731278" xlink:href="#maa40538ad9" y="310.788"/>
      </g>
     </g>
    </g>
    <g id="xtick_14">
     <g id="line2d_27">
      <path clip-path="url(#p293f8c5cf7)" d="M 378.34473 310.788 
L 378.34473 41.904 
" style="fill:none;stroke:#808080;stroke-dasharray:0.8,1.32;stroke-dashoffset:0;stroke-width:0.8;"/>
     </g>
     <g id="line2d_28">
      <g>
       <use style="stroke:#000000;stroke-width:0.6;" x="378.34473" xlink:href="#maa40538ad9" y="310.788"/>
      </g>
     </g>
    </g>
    <g id="xtick_15">
     <g id="line2d_29">
      <path clip-path="url(#p293f8c5cf7)" d="M 431.571634 310.788 
L 431.571634 41.904 
" style="fill:none;stroke:#808080;stroke-dasharray:0.8,1.32;stroke-dashoffset:0;stroke-width:0.8;"/>
     </g>
     <g id="line2d_30">
      <g>
       <use style="stroke:#000000;stroke-width:0.6;" x="431.571634" xlink:href="#maa40538ad9" y="310.788"/>
      </g>
     </g>
    </g>
    <g id="xtick_16">
     <g id="line2d_31">
      <path clip-path="url(#p293f8c5cf7)" d="M 458.185086 310.788 
L 458.185086 41.904 
" style="fill:none;stroke:#808080;stroke-dasharray:0.8,1.32;stroke-dashoffset:0;stroke-width:0.8;"/>
     </g>
     <g id="line2d_32">
      <g>
       <use style="stroke:#000000;stroke-width:0.6;" x="458.185086" xlink:href="#maa40538ad9" y="310.788"/>
      </g>
     </g>
    </g>
    <g id="xtick_17">
     <g id="line2d_33">
      <path clip-path="url(#p293f8c5cf7)" d="M 484.798538 310.788 
L 484.798538 41.904 
" style="fill:none;stroke:#808080;stroke-dasharray:0.8,1.32;stroke-dashoffset:0;stroke-width:0.8;"/>
     </g>
     <g id="line2d_34">
      <g>
       <use style="stroke:#000000;stroke-width:0.6;" x="484.798538" xlink:href="#maa40538ad9" y="310.788"/>
      </g>
     </g>
    </g>
    <g id="xtick_18">
     <g id="line2d_35">
      <path clip-path="url(#p293f8c5cf7)" d="M 538.025442 310.788 
L 538.025442 41.904 
" style="fill:none;stroke:#808080;stroke-dasharray:0.8,1.32;stroke-dashoffset:0;stroke-width:0.8;"/>
     </g>
     <g id="line2d_36">
      <g>
       <use style="stroke:#000000;stroke-width:0.6;" x="538.025442" xlink:href="#maa40538ad9" y="310.788"/>
      </g>
     </g>
    </g>
    <g id="xtick_19">
     <g id="line2d_37">
      <path clip-path="url(#p293f8c5cf7)" d="M 564.638894 310.788 
L 564.638894 41.904 
" style="fill:none;stroke:#808080;stroke-dasharray:0.8,1.32;stroke-dashoffset:0;stroke-width:0.8;"/>
     </g>
     <g id="line2d_38">
      <g>
       <use style="stroke:#000000;stroke-width:0.6;" x="564.638894" xlink:href="#maa40538ad9" y="310.788"/>
      </g>
     </g>
    </g>
    <g id="xtick_20">
     <g id="line2d_39">
      <path clip-path="url(#p293f8c5cf7)" d="M 591.252346 310.788 
L 591.252346 41.904 
" style="fill:none;stroke:#808080;stroke-dasharray:0.8,1.32;stroke-dashoffset:0;stroke-width:0.8;"/>
     </g>
     <g id="line2d_40">
      <g>
       <use style="stroke:#000000;stroke-width:0.6;" x="591.252346" xlink:href="#maa40538ad9" y="310.788"/>
      </g>
     </g>
    </g>
    <g id="text_6">
     <!-- time, (s) -->
     <g transform="translate(332.890531 339.064563)scale(0.1 -0.1)">
      <defs>
       <path d="M 1172 4494 
L 1172 3500 
L 2356 3500 
L 2356 3053 
L 1172 3053 
L 1172 1153 
Q 1172 725 1289 603 
Q 1406 481 1766 481 
L 2356 481 
L 2356 0 
L 1766 0 
Q 1100 0 847 248 
Q 594 497 594 1153 
L 594 3053 
L 172 3053 
L 172 3500 
L 594 3500 
L 594 4494 
L 1172 4494 
z
" id="DejaVuSans-74" transform="scale(0.015625)"/>
       <path d="M 603 3500 
L 1178 3500 
L 1178 0 
L 603 0 
L 603 3500 
z
M 603 4863 
L 1178 4863 
L 1178 4134 
L 603 4134 
L 603 4863 
z
" id="DejaVuSans-69" transform="scale(0.015625)"/>
       <path d="M 3328 2828 
Q 3544 3216 3844 3400 
Q 4144 3584 4550 3584 
Q 5097 3584 5394 3201 
Q 5691 2819 5691 2113 
L 5691 0 
L 5113 0 
L 5113 2094 
Q 5113 2597 4934 2840 
Q 4756 3084 4391 3084 
Q 3944 3084 3684 2787 
Q 3425 2491 3425 1978 
L 3425 0 
L 2847 0 
L 2847 2094 
Q 2847 2600 2669 2842 
Q 2491 3084 2119 3084 
Q 1678 3084 1418 2786 
Q 1159 2488 1159 1978 
L 1159 0 
L 581 0 
L 581 3500 
L 1159 3500 
L 1159 2956 
Q 1356 3278 1631 3431 
Q 1906 3584 2284 3584 
Q 2666 3584 2933 3390 
Q 3200 3197 3328 2828 
z
" id="DejaVuSans-6d" transform="scale(0.015625)"/>
       <path d="M 3597 1894 
L 3597 1613 
L 953 1613 
Q 991 1019 1311 708 
Q 1631 397 2203 397 
Q 2534 397 2845 478 
Q 3156 559 3463 722 
L 3463 178 
Q 3153 47 2828 -22 
Q 2503 -91 2169 -91 
Q 1331 -91 842 396 
Q 353 884 353 1716 
Q 353 2575 817 3079 
Q 1281 3584 2069 3584 
Q 2775 3584 3186 3129 
Q 3597 2675 3597 1894 
z
M 3022 2063 
Q 3016 2534 2758 2815 
Q 2500 3097 2075 3097 
Q 1594 3097 1305 2825 
Q 1016 2553 972 2059 
L 3022 2063 
z
" id="DejaVuSans-65" transform="scale(0.015625)"/>
       <path d="M 750 794 
L 1409 794 
L 1409 256 
L 897 -744 
L 494 -744 
L 750 256 
L 750 794 
z
" id="DejaVuSans-2c" transform="scale(0.015625)"/>
       <path id="DejaVuSans-20" transform="scale(0.015625)"/>
       <path d="M 1984 4856 
Q 1566 4138 1362 3434 
Q 1159 2731 1159 2009 
Q 1159 1288 1364 580 
Q 1569 -128 1984 -844 
L 1484 -844 
Q 1016 -109 783 600 
Q 550 1309 550 2009 
Q 550 2706 781 3412 
Q 1013 4119 1484 4856 
L 1984 4856 
z
" id="DejaVuSans-28" transform="scale(0.015625)"/>
       <path d="M 2834 3397 
L 2834 2853 
Q 2591 2978 2328 3040 
Q 2066 3103 1784 3103 
Q 1356 3103 1142 2972 
Q 928 2841 928 2578 
Q 928 2378 1081 2264 
Q 1234 2150 1697 2047 
L 1894 2003 
Q 2506 1872 2764 1633 
Q 3022 1394 3022 966 
Q 3022 478 2636 193 
Q 2250 -91 1575 -91 
Q 1294 -91 989 -36 
Q 684 19 347 128 
L 347 722 
Q 666 556 975 473 
Q 1284 391 1588 391 
Q 1994 391 2212 530 
Q 2431 669 2431 922 
Q 2431 1156 2273 1281 
Q 2116 1406 1581 1522 
L 1381 1569 
Q 847 1681 609 1914 
Q 372 2147 372 2553 
Q 372 3047 722 3315 
Q 1072 3584 1716 3584 
Q 2034 3584 2315 3537 
Q 2597 3491 2834 3397 
z
" id="DejaVuSans-73" transform="scale(0.015625)"/>
       <path d="M 513 4856 
L 1013 4856 
Q 1481 4119 1714 3412 
Q 1947 2706 1947 2009 
Q 1947 1309 1714 600 
Q 1481 -109 1013 -844 
L 513 -844 
Q 928 -128 1133 580 
Q 1338 1288 1338 2009 
Q 1338 2731 1133 3434 
Q 928 4138 513 4856 
z
" id="DejaVuSans-29" transform="scale(0.015625)"/>
      </defs>
      <use xlink:href="#DejaVuSans-74"/>
      <use x="39.208984" xlink:href="#DejaVuSans-69"/>
      <use x="66.992188" xlink:href="#DejaVuSans-6d"/>
      <use x="164.404297" xlink:href="#DejaVuSans-65"/>
      <use x="225.927734" xlink:href="#DejaVuSans-2c"/>
      <use x="257.714844" xlink:href="#DejaVuSans-20"/>
      <use x="289.501953" xlink:href="#DejaVuSans-28"/>
      <use x="328.515625" xlink:href="#DejaVuSans-73"/>
      <use x="380.615234" xlink:href="#DejaVuSans-29"/>
     </g>
    </g>
   </g>
   <g id="matplotlib.axis_2">
    <g id="ytick_1">
     <g id="line2d_41">
      <path clip-path="url(#p293f8c5cf7)" d="M 86.31 273.366951 
L 621.432 273.366951 
" style="fill:none;stroke:#000000;stroke-linecap:square;stroke-width:0.8;"/>
     </g>
     <g id="line2d_42">
      <defs>
       <path d="M 0 0 
L -3.5 0 
" id="m2d6568ad6d" style="stroke:#000000;stroke-width:0.8;"/>
      </defs>
      <g>
       <use style="stroke:#000000;stroke-width:0.8;" x="86.31" xlink:href="#m2d6568ad6d" y="273.366951"/>
      </g>
     </g>
     <g id="text_7">
      <!-- 0.5 -->
      <g transform="translate(63.406875 277.16617)scale(0.1 -0.1)">
       <defs>
        <path d="M 684 794 
L 1344 794 
L 1344 0 
L 684 0 
L 684 794 
z
" id="DejaVuSans-2e" transform="scale(0.015625)"/>
        <path d="M 691 4666 
L 3169 4666 
L 3169 4134 
L 1269 4134 
L 1269 2991 
Q 1406 3038 1543 3061 
Q 1681 3084 1819 3084 
Q 2600 3084 3056 2656 
Q 3513 2228 3513 1497 
Q 3513 744 3044 326 
Q 2575 -91 1722 -91 
Q 1428 -91 1123 -41 
Q 819 9 494 109 
L 494 744 
Q 775 591 1075 516 
Q 1375 441 1709 441 
Q 2250 441 2565 725 
Q 2881 1009 2881 1497 
Q 2881 1984 2565 2268 
Q 2250 2553 1709 2553 
Q 1456 2553 1204 2497 
Q 953 2441 691 2322 
L 691 4666 
z
" id="DejaVuSans-35" transform="scale(0.015625)"/>
       </defs>
       <use xlink:href="#DejaVuSans-30"/>
       <use x="63.623047" xlink:href="#DejaVuSans-2e"/>
       <use x="95.410156" xlink:href="#DejaVuSans-35"/>
      </g>
     </g>
    </g>
    <g id="ytick_2">
     <g id="line2d_43">
      <path clip-path="url(#p293f8c5cf7)" d="M 86.31 234.915401 
L 621.432 234.915401 
" style="fill:none;stroke:#000000;stroke-linecap:square;stroke-width:0.8;"/>
     </g>
     <g id="line2d_44">
      <g>
       <use style="stroke:#000000;stroke-width:0.8;" x="86.31" xlink:href="#m2d6568ad6d" y="234.915401"/>
      </g>
     </g>
     <g id="text_8">
      <!-- 1.0 -->
      <g transform="translate(63.406875 238.71462)scale(0.1 -0.1)">
       <use xlink:href="#DejaVuSans-31"/>
       <use x="63.623047" xlink:href="#DejaVuSans-2e"/>
       <use x="95.410156" xlink:href="#DejaVuSans-30"/>
      </g>
     </g>
    </g>
    <g id="ytick_3">
     <g id="line2d_45">
      <path clip-path="url(#p293f8c5cf7)" d="M 86.31 196.463851 
L 621.432 196.463851 
" style="fill:none;stroke:#000000;stroke-linecap:square;stroke-width:0.8;"/>
     </g>
     <g id="line2d_46">
      <g>
       <use style="stroke:#000000;stroke-width:0.8;" x="86.31" xlink:href="#m2d6568ad6d" y="196.463851"/>
      </g>
     </g>
     <g id="text_9">
      <!-- 1.5 -->
      <g transform="translate(63.406875 200.26307)scale(0.1 -0.1)">
       <use xlink:href="#DejaVuSans-31"/>
       <use x="63.623047" xlink:href="#DejaVuSans-2e"/>
       <use x="95.410156" xlink:href="#DejaVuSans-35"/>
      </g>
     </g>
    </g>
    <g id="ytick_4">
     <g id="line2d_47">
      <path clip-path="url(#p293f8c5cf7)" d="M 86.31 158.012301 
L 621.432 158.012301 
" style="fill:none;stroke:#000000;stroke-linecap:square;stroke-width:0.8;"/>
     </g>
     <g id="line2d_48">
      <g>
       <use style="stroke:#000000;stroke-width:0.8;" x="86.31" xlink:href="#m2d6568ad6d" y="158.012301"/>
      </g>
     </g>
     <g id="text_10">
      <!-- 2.0 -->
      <g transform="translate(63.406875 161.81152)scale(0.1 -0.1)">
       <use xlink:href="#DejaVuSans-32"/>
       <use x="63.623047" xlink:href="#DejaVuSans-2e"/>
       <use x="95.410156" xlink:href="#DejaVuSans-30"/>
      </g>
     </g>
    </g>
    <g id="ytick_5">
     <g id="line2d_49">
      <path clip-path="url(#p293f8c5cf7)" d="M 86.31 119.560751 
L 621.432 119.560751 
" style="fill:none;stroke:#000000;stroke-linecap:square;stroke-width:0.8;"/>
     </g>
     <g id="line2d_50">
      <g>
       <use style="stroke:#000000;stroke-width:0.8;" x="86.31" xlink:href="#m2d6568ad6d" y="119.560751"/>
      </g>
     </g>
     <g id="text_11">
      <!-- 2.5 -->
      <g transform="translate(63.406875 123.359969)scale(0.1 -0.1)">
       <use xlink:href="#DejaVuSans-32"/>
       <use x="63.623047" xlink:href="#DejaVuSans-2e"/>
       <use x="95.410156" xlink:href="#DejaVuSans-35"/>
      </g>
     </g>
    </g>
    <g id="ytick_6">
     <g id="line2d_51">
      <path clip-path="url(#p293f8c5cf7)" d="M 86.31 81.109201 
L 621.432 81.109201 
" style="fill:none;stroke:#000000;stroke-linecap:square;stroke-width:0.8;"/>
     </g>
     <g id="line2d_52">
      <g>
       <use style="stroke:#000000;stroke-width:0.8;" x="86.31" xlink:href="#m2d6568ad6d" y="81.109201"/>
      </g>
     </g>
     <g id="text_12">
      <!-- 3.0 -->
      <g transform="translate(63.406875 84.908419)scale(0.1 -0.1)">
       <defs>
        <path d="M 2597 2516 
Q 3050 2419 3304 2112 
Q 3559 1806 3559 1356 
Q 3559 666 3084 287 
Q 2609 -91 1734 -91 
Q 1441 -91 1130 -33 
Q 819 25 488 141 
L 488 750 
Q 750 597 1062 519 
Q 1375 441 1716 441 
Q 2309 441 2620 675 
Q 2931 909 2931 1356 
Q 2931 1769 2642 2001 
Q 2353 2234 1838 2234 
L 1294 2234 
L 1294 2753 
L 1863 2753 
Q 2328 2753 2575 2939 
Q 2822 3125 2822 3475 
Q 2822 3834 2567 4026 
Q 2313 4219 1838 4219 
Q 1578 4219 1281 4162 
Q 984 4106 628 3988 
L 628 4550 
Q 988 4650 1302 4700 
Q 1616 4750 1894 4750 
Q 2613 4750 3031 4423 
Q 3450 4097 3450 3541 
Q 3450 3153 3228 2886 
Q 3006 2619 2597 2516 
z
" id="DejaVuSans-33" transform="scale(0.015625)"/>
       </defs>
       <use xlink:href="#DejaVuSans-33"/>
       <use x="63.623047" xlink:href="#DejaVuSans-2e"/>
       <use x="95.410156" xlink:href="#DejaVuSans-30"/>
      </g>
     </g>
    </g>
    <g id="ytick_7">
     <g id="line2d_53">
      <path clip-path="url(#p293f8c5cf7)" d="M 86.31 42.65765 
L 621.432 42.65765 
" style="fill:none;stroke:#000000;stroke-linecap:square;stroke-width:0.8;"/>
     </g>
     <g id="line2d_54">
      <g>
       <use style="stroke:#000000;stroke-width:0.8;" x="86.31" xlink:href="#m2d6568ad6d" y="42.65765"/>
      </g>
     </g>
     <g id="text_13">
      <!-- 3.5 -->
      <g transform="translate(63.406875 46.456869)scale(0.1 -0.1)">
       <use xlink:href="#DejaVuSans-33"/>
       <use x="63.623047" xlink:href="#DejaVuSans-2e"/>
       <use x="95.410156" xlink:href="#DejaVuSans-35"/>
      </g>
     </g>
    </g>
    <g id="ytick_8">
     <g id="line2d_55">
      <path clip-path="url(#p293f8c5cf7)" d="M 86.31 304.128192 
L 621.432 304.128192 
" style="fill:none;stroke:#808080;stroke-dasharray:0.8,1.32;stroke-dashoffset:0;stroke-width:0.8;"/>
     </g>
     <g id="line2d_56">
      <defs>
       <path d="M 0 0 
L -2 0 
" id="mc9bc3e5b2a" style="stroke:#000000;stroke-width:0.6;"/>
      </defs>
      <g>
       <use style="stroke:#000000;stroke-width:0.6;" x="86.31" xlink:href="#mc9bc3e5b2a" y="304.128192"/>
      </g>
     </g>
    </g>
    <g id="ytick_9">
     <g id="line2d_57">
      <path clip-path="url(#p293f8c5cf7)" d="M 86.31 296.437881 
L 621.432 296.437881 
" style="fill:none;stroke:#808080;stroke-dasharray:0.8,1.32;stroke-dashoffset:0;stroke-width:0.8;"/>
     </g>
     <g id="line2d_58">
      <g>
       <use style="stroke:#000000;stroke-width:0.6;" x="86.31" xlink:href="#mc9bc3e5b2a" y="296.437881"/>
      </g>
     </g>
    </g>
    <g id="ytick_10">
     <g id="line2d_59">
      <path clip-path="url(#p293f8c5cf7)" d="M 86.31 288.747571 
L 621.432 288.747571 
" style="fill:none;stroke:#808080;stroke-dasharray:0.8,1.32;stroke-dashoffset:0;stroke-width:0.8;"/>
     </g>
     <g id="line2d_60">
      <g>
       <use style="stroke:#000000;stroke-width:0.6;" x="86.31" xlink:href="#mc9bc3e5b2a" y="288.747571"/>
      </g>
     </g>
    </g>
    <g id="ytick_11">
     <g id="line2d_61">
      <path clip-path="url(#p293f8c5cf7)" d="M 86.31 281.057261 
L 621.432 281.057261 
" style="fill:none;stroke:#808080;stroke-dasharray:0.8,1.32;stroke-dashoffset:0;stroke-width:0.8;"/>
     </g>
     <g id="line2d_62">
      <g>
       <use style="stroke:#000000;stroke-width:0.6;" x="86.31" xlink:href="#mc9bc3e5b2a" y="281.057261"/>
      </g>
     </g>
    </g>
    <g id="ytick_12">
     <g id="line2d_63">
      <path clip-path="url(#p293f8c5cf7)" d="M 86.31 265.676641 
L 621.432 265.676641 
" style="fill:none;stroke:#808080;stroke-dasharray:0.8,1.32;stroke-dashoffset:0;stroke-width:0.8;"/>
     </g>
     <g id="line2d_64">
      <g>
       <use style="stroke:#000000;stroke-width:0.6;" x="86.31" xlink:href="#mc9bc3e5b2a" y="265.676641"/>
      </g>
     </g>
    </g>
    <g id="ytick_13">
     <g id="line2d_65">
      <path clip-path="url(#p293f8c5cf7)" d="M 86.31 257.986331 
L 621.432 257.986331 
" style="fill:none;stroke:#808080;stroke-dasharray:0.8,1.32;stroke-dashoffset:0;stroke-width:0.8;"/>
     </g>
     <g id="line2d_66">
      <g>
       <use style="stroke:#000000;stroke-width:0.6;" x="86.31" xlink:href="#mc9bc3e5b2a" y="257.986331"/>
      </g>
     </g>
    </g>
    <g id="ytick_14">
     <g id="line2d_67">
      <path clip-path="url(#p293f8c5cf7)" d="M 86.31 250.296021 
L 621.432 250.296021 
" style="fill:none;stroke:#808080;stroke-dasharray:0.8,1.32;stroke-dashoffset:0;stroke-width:0.8;"/>
     </g>
     <g id="line2d_68">
      <g>
       <use style="stroke:#000000;stroke-width:0.6;" x="86.31" xlink:href="#mc9bc3e5b2a" y="250.296021"/>
      </g>
     </g>
    </g>
    <g id="ytick_15">
     <g id="line2d_69">
      <path clip-path="url(#p293f8c5cf7)" d="M 86.31 242.605711 
L 621.432 242.605711 
" style="fill:none;stroke:#808080;stroke-dasharray:0.8,1.32;stroke-dashoffset:0;stroke-width:0.8;"/>
     </g>
     <g id="line2d_70">
      <g>
       <use style="stroke:#000000;stroke-width:0.6;" x="86.31" xlink:href="#mc9bc3e5b2a" y="242.605711"/>
      </g>
     </g>
    </g>
    <g id="ytick_16">
     <g id="line2d_71">
      <path clip-path="url(#p293f8c5cf7)" d="M 86.31 227.225091 
L 621.432 227.225091 
" style="fill:none;stroke:#808080;stroke-dasharray:0.8,1.32;stroke-dashoffset:0;stroke-width:0.8;"/>
     </g>
     <g id="line2d_72">
      <g>
       <use style="stroke:#000000;stroke-width:0.6;" x="86.31" xlink:href="#mc9bc3e5b2a" y="227.225091"/>
      </g>
     </g>
    </g>
    <g id="ytick_17">
     <g id="line2d_73">
      <path clip-path="url(#p293f8c5cf7)" d="M 86.31 219.534781 
L 621.432 219.534781 
" style="fill:none;stroke:#808080;stroke-dasharray:0.8,1.32;stroke-dashoffset:0;stroke-width:0.8;"/>
     </g>
     <g id="line2d_74">
      <g>
       <use style="stroke:#000000;stroke-width:0.6;" x="86.31" xlink:href="#mc9bc3e5b2a" y="219.534781"/>
      </g>
     </g>
    </g>
    <g id="ytick_18">
     <g id="line2d_75">
      <path clip-path="url(#p293f8c5cf7)" d="M 86.31 211.844471 
L 621.432 211.844471 
" style="fill:none;stroke:#808080;stroke-dasharray:0.8,1.32;stroke-dashoffset:0;stroke-width:0.8;"/>
     </g>
     <g id="line2d_76">
      <g>
       <use style="stroke:#000000;stroke-width:0.6;" x="86.31" xlink:href="#mc9bc3e5b2a" y="211.844471"/>
      </g>
     </g>
    </g>
    <g id="ytick_19">
     <g id="line2d_77">
      <path clip-path="url(#p293f8c5cf7)" d="M 86.31 204.154161 
L 621.432 204.154161 
" style="fill:none;stroke:#808080;stroke-dasharray:0.8,1.32;stroke-dashoffset:0;stroke-width:0.8;"/>
     </g>
     <g id="line2d_78">
      <g>
       <use style="stroke:#000000;stroke-width:0.6;" x="86.31" xlink:href="#mc9bc3e5b2a" y="204.154161"/>
      </g>
     </g>
    </g>
    <g id="ytick_20">
     <g id="line2d_79">
      <path clip-path="url(#p293f8c5cf7)" d="M 86.31 188.773541 
L 621.432 188.773541 
" style="fill:none;stroke:#808080;stroke-dasharray:0.8,1.32;stroke-dashoffset:0;stroke-width:0.8;"/>
     </g>
     <g id="line2d_80">
      <g>
       <use style="stroke:#000000;stroke-width:0.6;" x="86.31" xlink:href="#mc9bc3e5b2a" y="188.773541"/>
      </g>
     </g>
    </g>
    <g id="ytick_21">
     <g id="line2d_81">
      <path clip-path="url(#p293f8c5cf7)" d="M 86.31 181.083231 
L 621.432 181.083231 
" style="fill:none;stroke:#808080;stroke-dasharray:0.8,1.32;stroke-dashoffset:0;stroke-width:0.8;"/>
     </g>
     <g id="line2d_82">
      <g>
       <use style="stroke:#000000;stroke-width:0.6;" x="86.31" xlink:href="#mc9bc3e5b2a" y="181.083231"/>
      </g>
     </g>
    </g>
    <g id="ytick_22">
     <g id="line2d_83">
      <path clip-path="url(#p293f8c5cf7)" d="M 86.31 173.392921 
L 621.432 173.392921 
" style="fill:none;stroke:#808080;stroke-dasharray:0.8,1.32;stroke-dashoffset:0;stroke-width:0.8;"/>
     </g>
     <g id="line2d_84">
      <g>
       <use style="stroke:#000000;stroke-width:0.6;" x="86.31" xlink:href="#mc9bc3e5b2a" y="173.392921"/>
      </g>
     </g>
    </g>
    <g id="ytick_23">
     <g id="line2d_85">
      <path clip-path="url(#p293f8c5cf7)" d="M 86.31 165.702611 
L 621.432 165.702611 
" style="fill:none;stroke:#808080;stroke-dasharray:0.8,1.32;stroke-dashoffset:0;stroke-width:0.8;"/>
     </g>
     <g id="line2d_86">
      <g>
       <use style="stroke:#000000;stroke-width:0.6;" x="86.31" xlink:href="#mc9bc3e5b2a" y="165.702611"/>
      </g>
     </g>
    </g>
    <g id="ytick_24">
     <g id="line2d_87">
      <path clip-path="url(#p293f8c5cf7)" d="M 86.31 150.321991 
L 621.432 150.321991 
" style="fill:none;stroke:#808080;stroke-dasharray:0.8,1.32;stroke-dashoffset:0;stroke-width:0.8;"/>
     </g>
     <g id="line2d_88">
      <g>
       <use style="stroke:#000000;stroke-width:0.6;" x="86.31" xlink:href="#mc9bc3e5b2a" y="150.321991"/>
      </g>
     </g>
    </g>
    <g id="ytick_25">
     <g id="line2d_89">
      <path clip-path="url(#p293f8c5cf7)" d="M 86.31 142.631681 
L 621.432 142.631681 
" style="fill:none;stroke:#808080;stroke-dasharray:0.8,1.32;stroke-dashoffset:0;stroke-width:0.8;"/>
     </g>
     <g id="line2d_90">
      <g>
       <use style="stroke:#000000;stroke-width:0.6;" x="86.31" xlink:href="#mc9bc3e5b2a" y="142.631681"/>
      </g>
     </g>
    </g>
    <g id="ytick_26">
     <g id="line2d_91">
      <path clip-path="url(#p293f8c5cf7)" d="M 86.31 134.941371 
L 621.432 134.941371 
" style="fill:none;stroke:#808080;stroke-dasharray:0.8,1.32;stroke-dashoffset:0;stroke-width:0.8;"/>
     </g>
     <g id="line2d_92">
      <g>
       <use style="stroke:#000000;stroke-width:0.6;" x="86.31" xlink:href="#mc9bc3e5b2a" y="134.941371"/>
      </g>
     </g>
    </g>
    <g id="ytick_27">
     <g id="line2d_93">
      <path clip-path="url(#p293f8c5cf7)" d="M 86.31 127.251061 
L 621.432 127.251061 
" style="fill:none;stroke:#808080;stroke-dasharray:0.8,1.32;stroke-dashoffset:0;stroke-width:0.8;"/>
     </g>
     <g id="line2d_94">
      <g>
       <use style="stroke:#000000;stroke-width:0.6;" x="86.31" xlink:href="#mc9bc3e5b2a" y="127.251061"/>
      </g>
     </g>
    </g>
    <g id="ytick_28">
     <g id="line2d_95">
      <path clip-path="url(#p293f8c5cf7)" d="M 86.31 111.870441 
L 621.432 111.870441 
" style="fill:none;stroke:#808080;stroke-dasharray:0.8,1.32;stroke-dashoffset:0;stroke-width:0.8;"/>
     </g>
     <g id="line2d_96">
      <g>
       <use style="stroke:#000000;stroke-width:0.6;" x="86.31" xlink:href="#mc9bc3e5b2a" y="111.870441"/>
      </g>
     </g>
    </g>
    <g id="ytick_29">
     <g id="line2d_97">
      <path clip-path="url(#p293f8c5cf7)" d="M 86.31 104.180131 
L 621.432 104.180131 
" style="fill:none;stroke:#808080;stroke-dasharray:0.8,1.32;stroke-dashoffset:0;stroke-width:0.8;"/>
     </g>
     <g id="line2d_98">
      <g>
       <use style="stroke:#000000;stroke-width:0.6;" x="86.31" xlink:href="#mc9bc3e5b2a" y="104.180131"/>
      </g>
     </g>
    </g>
    <g id="ytick_30">
     <g id="line2d_99">
      <path clip-path="url(#p293f8c5cf7)" d="M 86.31 96.489821 
L 621.432 96.489821 
" style="fill:none;stroke:#808080;stroke-dasharray:0.8,1.32;stroke-dashoffset:0;stroke-width:0.8;"/>
     </g>
     <g id="line2d_100">
      <g>
       <use style="stroke:#000000;stroke-width:0.6;" x="86.31" xlink:href="#mc9bc3e5b2a" y="96.489821"/>
      </g>
     </g>
    </g>
    <g id="ytick_31">
     <g id="line2d_101">
      <path clip-path="url(#p293f8c5cf7)" d="M 86.31 88.799511 
L 621.432 88.799511 
" style="fill:none;stroke:#808080;stroke-dasharray:0.8,1.32;stroke-dashoffset:0;stroke-width:0.8;"/>
     </g>
     <g id="line2d_102">
      <g>
       <use style="stroke:#000000;stroke-width:0.6;" x="86.31" xlink:href="#mc9bc3e5b2a" y="88.799511"/>
      </g>
     </g>
    </g>
    <g id="ytick_32">
     <g id="line2d_103">
      <path clip-path="url(#p293f8c5cf7)" d="M 86.31 73.418891 
L 621.432 73.418891 
" style="fill:none;stroke:#808080;stroke-dasharray:0.8,1.32;stroke-dashoffset:0;stroke-width:0.8;"/>
     </g>
     <g id="line2d_104">
      <g>
       <use style="stroke:#000000;stroke-width:0.6;" x="86.31" xlink:href="#mc9bc3e5b2a" y="73.418891"/>
      </g>
     </g>
    </g>
    <g id="ytick_33">
     <g id="line2d_105">
      <path clip-path="url(#p293f8c5cf7)" d="M 86.31 65.72858 
L 621.432 65.72858 
" style="fill:none;stroke:#808080;stroke-dasharray:0.8,1.32;stroke-dashoffset:0;stroke-width:0.8;"/>
     </g>
     <g id="line2d_106">
      <g>
       <use style="stroke:#000000;stroke-width:0.6;" x="86.31" xlink:href="#mc9bc3e5b2a" y="65.72858"/>
      </g>
     </g>
    </g>
    <g id="ytick_34">
     <g id="line2d_107">
      <path clip-path="url(#p293f8c5cf7)" d="M 86.31 58.03827 
L 621.432 58.03827 
" style="fill:none;stroke:#808080;stroke-dasharray:0.8,1.32;stroke-dashoffset:0;stroke-width:0.8;"/>
     </g>
     <g id="line2d_108">
      <g>
       <use style="stroke:#000000;stroke-width:0.6;" x="86.31" xlink:href="#mc9bc3e5b2a" y="58.03827"/>
      </g>
     </g>
    </g>
    <g id="ytick_35">
     <g id="line2d_109">
      <path clip-path="url(#p293f8c5cf7)" d="M 86.31 50.34796 
L 621.432 50.34796 
" style="fill:none;stroke:#808080;stroke-dasharray:0.8,1.32;stroke-dashoffset:0;stroke-width:0.8;"/>
     </g>
     <g id="line2d_110">
      <g>
       <use style="stroke:#000000;stroke-width:0.6;" x="86.31" xlink:href="#mc9bc3e5b2a" y="50.34796"/>
      </g>
     </g>
    </g>
    <g id="text_14">
     <!-- voltage, (V) -->
     <g transform="translate(57.327187 205.528813)rotate(-90)scale(0.1 -0.1)">
      <defs>
       <path d="M 191 3500 
L 800 3500 
L 1894 563 
L 2988 3500 
L 3597 3500 
L 2284 0 
L 1503 0 
L 191 3500 
z
" id="DejaVuSans-76" transform="scale(0.015625)"/>
       <path d="M 1959 3097 
Q 1497 3097 1228 2736 
Q 959 2375 959 1747 
Q 959 1119 1226 758 
Q 1494 397 1959 397 
Q 2419 397 2687 759 
Q 2956 1122 2956 1747 
Q 2956 2369 2687 2733 
Q 2419 3097 1959 3097 
z
M 1959 3584 
Q 2709 3584 3137 3096 
Q 3566 2609 3566 1747 
Q 3566 888 3137 398 
Q 2709 -91 1959 -91 
Q 1206 -91 779 398 
Q 353 888 353 1747 
Q 353 2609 779 3096 
Q 1206 3584 1959 3584 
z
" id="DejaVuSans-6f" transform="scale(0.015625)"/>
       <path d="M 603 4863 
L 1178 4863 
L 1178 0 
L 603 0 
L 603 4863 
z
" id="DejaVuSans-6c" transform="scale(0.015625)"/>
       <path d="M 2194 1759 
Q 1497 1759 1228 1600 
Q 959 1441 959 1056 
Q 959 750 1161 570 
Q 1363 391 1709 391 
Q 2188 391 2477 730 
Q 2766 1069 2766 1631 
L 2766 1759 
L 2194 1759 
z
M 3341 1997 
L 3341 0 
L 2766 0 
L 2766 531 
Q 2569 213 2275 61 
Q 1981 -91 1556 -91 
Q 1019 -91 701 211 
Q 384 513 384 1019 
Q 384 1609 779 1909 
Q 1175 2209 1959 2209 
L 2766 2209 
L 2766 2266 
Q 2766 2663 2505 2880 
Q 2244 3097 1772 3097 
Q 1472 3097 1187 3025 
Q 903 2953 641 2809 
L 641 3341 
Q 956 3463 1253 3523 
Q 1550 3584 1831 3584 
Q 2591 3584 2966 3190 
Q 3341 2797 3341 1997 
z
" id="DejaVuSans-61" transform="scale(0.015625)"/>
       <path d="M 2906 1791 
Q 2906 2416 2648 2759 
Q 2391 3103 1925 3103 
Q 1463 3103 1205 2759 
Q 947 2416 947 1791 
Q 947 1169 1205 825 
Q 1463 481 1925 481 
Q 2391 481 2648 825 
Q 2906 1169 2906 1791 
z
M 3481 434 
Q 3481 -459 3084 -895 
Q 2688 -1331 1869 -1331 
Q 1566 -1331 1297 -1286 
Q 1028 -1241 775 -1147 
L 775 -588 
Q 1028 -725 1275 -790 
Q 1522 -856 1778 -856 
Q 2344 -856 2625 -561 
Q 2906 -266 2906 331 
L 2906 616 
Q 2728 306 2450 153 
Q 2172 0 1784 0 
Q 1141 0 747 490 
Q 353 981 353 1791 
Q 353 2603 747 3093 
Q 1141 3584 1784 3584 
Q 2172 3584 2450 3431 
Q 2728 3278 2906 2969 
L 2906 3500 
L 3481 3500 
L 3481 434 
z
" id="DejaVuSans-67" transform="scale(0.015625)"/>
       <path d="M 1831 0 
L 50 4666 
L 709 4666 
L 2188 738 
L 3669 4666 
L 4325 4666 
L 2547 0 
L 1831 0 
z
" id="DejaVuSans-56" transform="scale(0.015625)"/>
      </defs>
      <use xlink:href="#DejaVuSans-76"/>
      <use x="59.179688" xlink:href="#DejaVuSans-6f"/>
      <use x="120.361328" xlink:href="#DejaVuSans-6c"/>
      <use x="148.144531" xlink:href="#DejaVuSans-74"/>
      <use x="187.353516" xlink:href="#DejaVuSans-61"/>
      <use x="248.632812" xlink:href="#DejaVuSans-67"/>
      <use x="312.109375" xlink:href="#DejaVuSans-65"/>
      <use x="373.632812" xlink:href="#DejaVuSans-2c"/>
      <use x="405.419922" xlink:href="#DejaVuSans-20"/>
      <use x="437.207031" xlink:href="#DejaVuSans-28"/>
      <use x="476.220703" xlink:href="#DejaVuSans-56"/>
      <use x="544.628906" xlink:href="#DejaVuSans-29"/>
     </g>
    </g>
   </g>
   <g id="line2d_111">
    <path clip-path="url(#p293f8c5cf7)" d="M 85.596759 310.788 
L 86.182255 306.665994 
L 87.938743 300.482985 
L 88.524239 296.360978 
L 89.695231 292.238972 
L 90.280727 288.116966 
L 90.866223 288.116966 
L 91.451719 283.99496 
L 92.037215 283.99496 
L 92.622711 279.872954 
L 93.208207 279.872954 
L 93.793703 273.689944 
L 101.40515 246.896904 
L 101.990646 246.896904 
L 102.576142 242.774898 
L 104.918126 234.530886 
L 105.503622 234.530886 
L 106.089117 230.40888 
L 106.674613 230.40888 
L 111.358581 213.920855 
L 111.944077 213.920855 
L 114.286061 205.676842 
L 114.871557 205.676842 
L 117.21354 197.43283 
L 117.799036 197.43283 
L 118.970028 193.310824 
L 119.555524 193.310824 
L 120.726516 189.188818 
L 121.312012 189.188818 
L 122.483004 185.066812 
L 123.0685 185.066812 
L 124.239492 180.944805 
L 125.410484 180.944805 
L 125.995979 176.822799 
L 126.581475 176.822799 
L 127.166971 174.761796 
L 127.752467 174.761796 
L 128.923459 170.63979 
L 129.508955 170.63979 
L 130.094451 168.578787 
L 130.679947 168.578787 
L 131.850939 164.456781 
L 133.021931 164.456781 
L 134.192923 160.334775 
L 135.363915 160.334775 
L 136.534906 156.212768 
L 137.120402 156.212768 
L 137.705898 154.151765 
L 138.291394 154.151765 
L 138.87689 152.090762 
L 139.462386 152.090762 
L 140.047882 150.029759 
L 140.633378 150.029759 
L 141.218874 147.968756 
L 142.975362 147.968756 
L 143.560858 143.84675 
L 144.73185 143.84675 
L 145.317346 141.785747 
L 145.902841 141.785747 
L 146.488337 139.724744 
L 147.659329 139.724744 
L 148.244825 137.663741 
L 148.830321 137.663741 
L 149.415817 135.602737 
L 150.001313 135.602737 
L 150.586809 133.541734 
L 152.343297 133.541734 
L 153.514289 129.419728 
L 154.685281 129.419728 
L 155.270777 127.358725 
L 156.441768 127.358725 
L 157.027264 125.297722 
L 157.61276 125.297722 
L 158.198256 123.236719 
L 159.954744 123.236719 
L 160.54024 121.175716 
L 161.125736 121.175716 
L 161.711232 119.114713 
L 162.882224 119.114713 
L 163.46772 117.05371 
L 165.224208 117.05371 
L 166.395199 112.931703 
L 169.908175 112.931703 
L 171.079167 108.809697 
L 173.421151 108.809697 
L 174.006647 106.748694 
L 175.763135 106.748694 
L 176.34863 104.687691 
L 177.519622 104.687691 
L 178.105118 102.626688 
L 179.27611 102.626688 
L 179.861606 100.565685 
L 182.20359 100.565685 
L 182.789086 98.504682 
L 185.13107 98.504682 
L 185.716566 96.443679 
L 188.058549 96.443679 
L 188.644045 94.382676 
L 190.986029 94.382676 
L 191.571525 92.321673 
L 192.742517 92.321673 
L 193.328013 90.260669 
L 193.913509 92.321673 
L 194.499005 90.260669 
L 196.255492 90.260669 
L 196.840988 88.199666 
L 200.93946 88.199666 
L 201.524956 86.138663 
L 204.452436 86.138663 
L 205.037932 84.07766 
L 207.965411 84.07766 
L 208.550907 82.016657 
L 210.892891 82.016657 
L 211.478387 79.955654 
L 217.918842 79.955654 
L 218.504338 77.894651 
L 223.188306 77.894651 
L 223.773802 75.833648 
L 224.359298 77.894651 
L 224.944794 75.833648 
L 227.872273 75.833648 
L 228.457769 73.772645 
L 229.043265 75.833648 
L 229.628761 73.772645 
L 234.898225 73.772645 
L 235.483721 71.711642 
L 240.753184 71.711642 
L 241.33868 69.650639 
L 246.608143 69.650639 
L 247.193639 67.589636 
L 247.779135 69.650639 
L 248.364631 69.650639 
L 248.950127 67.589636 
L 254.219591 67.589636 
L 254.805087 65.528632 
L 255.390583 67.589636 
L 255.976079 67.589636 
L 256.561574 65.528632 
L 257.14707 67.589636 
L 257.732566 67.589636 
L 258.318062 65.528632 
L 263.00203 65.528632 
L 263.587526 63.467629 
L 264.173022 65.528632 
L 264.758518 65.528632 
L 265.344014 63.467629 
L 265.92951 63.467629 
L 266.515005 65.528632 
L 268.271493 65.528632 
L 268.856989 63.467629 
L 279.981412 63.467629 
L 280.566908 61.406626 
L 281.152404 63.467629 
L 281.7379 61.406626 
L 294.618811 61.406626 
L 295.204307 59.345623 
L 295.789803 59.345623 
L 296.375299 61.406626 
L 296.960794 61.406626 
L 297.54629 59.345623 
L 298.131786 59.345623 
L 298.717282 61.406626 
L 299.302778 59.345623 
L 309.256209 59.345623 
L 309.841705 57.28462 
L 310.427201 61.406626 
L 311.012697 63.467629 
L 311.598193 63.467629 
L 312.183689 67.589636 
L 313.354681 71.711642 
L 313.940177 75.833648 
L 314.525673 75.833648 
L 315.111169 79.955654 
L 315.696665 79.955654 
L 316.282161 84.07766 
L 317.453152 88.199666 
L 318.038648 88.199666 
L 318.624144 92.321673 
L 319.20964 92.321673 
L 325.0646 112.931703 
L 325.650096 112.931703 
L 328.577575 123.236719 
L 329.163071 123.236719 
L 329.748567 127.358725 
L 330.334063 127.358725 
L 330.919559 129.419728 
L 331.505055 129.419728 
L 334.432535 139.724744 
L 335.018031 139.724744 
L 337.360014 147.968756 
L 337.94551 147.968756 
L 339.116502 152.090762 
L 339.701998 152.090762 
L 340.287494 154.151765 
L 340.87299 154.151765 
L 342.629478 160.334775 
L 343.214974 160.334775 
L 343.80047 162.395778 
L 344.385966 162.395778 
L 345.556958 166.517784 
L 346.142454 166.517784 
L 347.313445 170.63979 
L 347.898941 170.63979 
L 348.484437 172.700793 
L 349.069933 172.700793 
L 349.655429 174.761796 
L 350.240925 174.761796 
L 350.826421 176.822799 
L 351.411917 176.822799 
L 351.997413 178.883802 
L 352.582909 178.883802 
L 353.168405 180.944805 
L 353.753901 180.944805 
L 354.339397 183.005808 
L 354.924893 183.005808 
L 356.095885 187.127815 
L 357.266876 187.127815 
L 357.852372 189.188818 
L 358.437868 189.188818 
L 359.023364 191.249821 
L 359.60886 191.249821 
L 360.779852 195.371827 
L 361.950844 195.371827 
L 362.53634 197.43283 
L 363.121836 197.43283 
L 363.707332 199.493833 
L 364.292828 199.493833 
L 364.878324 201.554836 
L 365.46382 201.554836 
L 366.049316 203.615839 
L 367.220307 203.615839 
L 367.805803 205.676842 
L 368.391299 205.676842 
L 368.976795 207.737846 
L 369.562291 207.737846 
L 370.147787 209.798849 
L 370.733283 209.798849 
L 371.318779 211.859852 
L 373.075267 211.859852 
L 374.246259 215.981858 
L 375.417251 215.981858 
L 376.002747 218.042861 
L 376.588243 218.042861 
L 377.173738 220.103864 
L 378.930226 220.103864 
L 379.515722 222.164867 
L 380.101218 222.164867 
L 380.686714 224.22587 
L 381.857706 224.22587 
L 382.443202 226.286873 
L 383.028698 226.286873 
L 383.614194 228.347876 
L 384.785186 228.347876 
L 385.370682 230.40888 
L 387.127169 230.40888 
L 387.712665 232.469883 
L 388.883657 232.469883 
L 389.469153 234.530886 
L 390.640145 234.530886 
L 391.225641 236.591889 
L 392.982129 236.591889 
L 393.567625 238.652892 
L 394.153121 238.652892 
L 394.738617 240.713895 
L 396.495105 240.713895 
L 397.080601 242.774898 
L 398.251592 242.774898 
L 398.837088 244.835901 
L 399.422584 244.835901 
L 400.00808 246.896904 
L 403.521056 246.896904 
L 404.106552 248.957907 
L 405.277544 248.957907 
L 405.86304 251.01891 
L 407.034032 251.01891 
L 407.619527 253.079914 
L 409.961511 253.079914 
L 410.547007 255.140917 
L 412.303495 255.140917 
L 412.888991 257.20192 
L 414.059983 257.20192 
L 414.645479 259.262923 
L 416.987463 259.262923 
L 417.572958 261.323926 
L 419.914942 261.323926 
L 420.500438 263.384929 
L 421.085934 261.323926 
L 421.67143 263.384929 
L 422.842422 263.384929 
L 423.427918 265.445932 
L 425.769902 265.445932 
L 426.355398 267.506935 
L 428.697381 267.506935 
L 429.282877 269.567938 
L 431.624861 269.567938 
L 432.210357 271.628941 
L 435.723333 271.628941 
L 436.308829 273.689944 
L 438.650812 273.689944 
L 439.236308 275.750947 
L 441.578292 275.750947 
L 442.163788 277.811951 
L 442.749284 275.750947 
L 443.33478 277.811951 
L 445.091268 277.811951 
L 445.676764 279.872954 
L 451.531723 279.872954 
L 452.117219 281.933957 
L 456.215691 281.933957 
L 456.801187 283.99496 
L 459.728666 283.99496 
L 460.314162 286.055963 
L 465.583626 286.055963 
L 466.169122 288.116966 
L 472.024081 288.116966 
L 472.609577 290.177969 
L 477.293545 290.177969 
L 477.87904 292.238972 
L 478.464536 290.177969 
L 479.050032 292.238972 
L 485.490488 292.238972 
L 486.075984 294.299975 
L 491.345447 294.299975 
L 491.930943 296.360978 
L 501.298878 296.360978 
L 501.884374 298.421981 
L 511.252309 298.421981 
L 511.837805 300.482985 
L 512.423301 298.421981 
L 513.008797 300.482985 
L 522.376732 300.482985 
L 522.962228 302.543988 
L 535.257643 302.543988 
L 535.843139 304.604991 
L 536.428635 302.543988 
L 538.185122 302.543988 
L 538.770618 304.604991 
L 539.356114 304.604991 
L 539.94161 302.543988 
L 540.527106 304.604991 
L 552.237025 304.604991 
L 552.822521 306.665994 
L 553.408017 304.604991 
L 558.091984 304.604991 
L 558.67748 306.665994 
L 559.848472 306.665994 
L 560.433968 304.604991 
L 561.019464 306.665994 
L 576.827855 306.665994 
L 577.413351 308.726997 
L 577.998847 306.665994 
L 579.169838 306.665994 
L 579.755334 308.726997 
L 610.201123 308.726997 
L 610.786619 310.788 
L 610.786619 310.788 
" style="fill:none;stroke:#0000ff;stroke-linecap:square;"/>
   </g>
   <g id="patch_3">
    <path d="M 86.31 310.788 
L 86.31 41.904 
" style="fill:none;stroke:#000000;stroke-linecap:square;stroke-linejoin:miter;stroke-width:0.8;"/>
   </g>
   <g id="patch_4">
    <path d="M 621.432 310.788 
L 621.432 41.904 
" style="fill:none;stroke:#000000;stroke-linecap:square;stroke-linejoin:miter;stroke-width:0.8;"/>
   </g>
   <g id="patch_5">
    <path d="M 86.31 310.788 
L 621.432 310.788 
" style="fill:none;stroke:#000000;stroke-linecap:square;stroke-linejoin:miter;stroke-width:0.8;"/>
   </g>
   <g id="patch_6">
    <path d="M 86.31 41.904 
L 621.432 41.904 
" style="fill:none;stroke:#000000;stroke-linecap:square;stroke-linejoin:miter;stroke-width:0.8;"/>
   </g>
   <g id="text_15">
    <!-- charging time is 4.21s -->
    <g transform="translate(353.871 109.125)scale(0.1 -0.1)">
     <defs>
      <path d="M 3122 3366 
L 3122 2828 
Q 2878 2963 2633 3030 
Q 2388 3097 2138 3097 
Q 1578 3097 1268 2742 
Q 959 2388 959 1747 
Q 959 1106 1268 751 
Q 1578 397 2138 397 
Q 2388 397 2633 464 
Q 2878 531 3122 666 
L 3122 134 
Q 2881 22 2623 -34 
Q 2366 -91 2075 -91 
Q 1284 -91 818 406 
Q 353 903 353 1747 
Q 353 2603 823 3093 
Q 1294 3584 2113 3584 
Q 2378 3584 2631 3529 
Q 2884 3475 3122 3366 
z
" id="DejaVuSans-63" transform="scale(0.015625)"/>
      <path d="M 3513 2113 
L 3513 0 
L 2938 0 
L 2938 2094 
Q 2938 2591 2744 2837 
Q 2550 3084 2163 3084 
Q 1697 3084 1428 2787 
Q 1159 2491 1159 1978 
L 1159 0 
L 581 0 
L 581 4863 
L 1159 4863 
L 1159 2956 
Q 1366 3272 1645 3428 
Q 1925 3584 2291 3584 
Q 2894 3584 3203 3211 
Q 3513 2838 3513 2113 
z
" id="DejaVuSans-68" transform="scale(0.015625)"/>
      <path d="M 2631 2963 
Q 2534 3019 2420 3045 
Q 2306 3072 2169 3072 
Q 1681 3072 1420 2755 
Q 1159 2438 1159 1844 
L 1159 0 
L 581 0 
L 581 3500 
L 1159 3500 
L 1159 2956 
Q 1341 3275 1631 3429 
Q 1922 3584 2338 3584 
Q 2397 3584 2469 3576 
Q 2541 3569 2628 3553 
L 2631 2963 
z
" id="DejaVuSans-72" transform="scale(0.015625)"/>
      <path d="M 3513 2113 
L 3513 0 
L 2938 0 
L 2938 2094 
Q 2938 2591 2744 2837 
Q 2550 3084 2163 3084 
Q 1697 3084 1428 2787 
Q 1159 2491 1159 1978 
L 1159 0 
L 581 0 
L 581 3500 
L 1159 3500 
L 1159 2956 
Q 1366 3272 1645 3428 
Q 1925 3584 2291 3584 
Q 2894 3584 3203 3211 
Q 3513 2838 3513 2113 
z
" id="DejaVuSans-6e" transform="scale(0.015625)"/>
     </defs>
     <use xlink:href="#DejaVuSans-63"/>
     <use x="54.980469" xlink:href="#DejaVuSans-68"/>
     <use x="118.359375" xlink:href="#DejaVuSans-61"/>
     <use x="179.638672" xlink:href="#DejaVuSans-72"/>
     <use x="219.001953" xlink:href="#DejaVuSans-67"/>
     <use x="282.478516" xlink:href="#DejaVuSans-69"/>
     <use x="310.261719" xlink:href="#DejaVuSans-6e"/>
     <use x="373.640625" xlink:href="#DejaVuSans-67"/>
     <use x="437.117188" xlink:href="#DejaVuSans-20"/>
     <use x="468.904297" xlink:href="#DejaVuSans-74"/>
     <use x="508.113281" xlink:href="#DejaVuSans-69"/>
     <use x="535.896484" xlink:href="#DejaVuSans-6d"/>
     <use x="633.308594" xlink:href="#DejaVuSans-65"/>
     <use x="694.832031" xlink:href="#DejaVuSans-20"/>
     <use x="726.619141" xlink:href="#DejaVuSans-69"/>
     <use x="754.402344" xlink:href="#DejaVuSans-73"/>
     <use x="806.501953" xlink:href="#DejaVuSans-20"/>
     <use x="838.289062" xlink:href="#DejaVuSans-34"/>
     <use x="901.912109" xlink:href="#DejaVuSans-2e"/>
     <use x="933.699219" xlink:href="#DejaVuSans-32"/>
     <use x="997.322266" xlink:href="#DejaVuSans-31"/>
     <use x="1060.945312" xlink:href="#DejaVuSans-73"/>
    </g>
   </g>
   <g id="text_16">
    <!-- discharging time is 5.65s -->
    <g transform="translate(353.871 149.4576)scale(0.1 -0.1)">
     <defs>
      <path d="M 2906 2969 
L 2906 4863 
L 3481 4863 
L 3481 0 
L 2906 0 
L 2906 525 
Q 2725 213 2448 61 
Q 2172 -91 1784 -91 
Q 1150 -91 751 415 
Q 353 922 353 1747 
Q 353 2572 751 3078 
Q 1150 3584 1784 3584 
Q 2172 3584 2448 3432 
Q 2725 3281 2906 2969 
z
M 947 1747 
Q 947 1113 1208 752 
Q 1469 391 1925 391 
Q 2381 391 2643 752 
Q 2906 1113 2906 1747 
Q 2906 2381 2643 2742 
Q 2381 3103 1925 3103 
Q 1469 3103 1208 2742 
Q 947 2381 947 1747 
z
" id="DejaVuSans-64" transform="scale(0.015625)"/>
     </defs>
     <use xlink:href="#DejaVuSans-64"/>
     <use x="63.476562" xlink:href="#DejaVuSans-69"/>
     <use x="91.259766" xlink:href="#DejaVuSans-73"/>
     <use x="143.359375" xlink:href="#DejaVuSans-63"/>
     <use x="198.339844" xlink:href="#DejaVuSans-68"/>
     <use x="261.71875" xlink:href="#DejaVuSans-61"/>
     <use x="322.998047" xlink:href="#DejaVuSans-72"/>
     <use x="362.361328" xlink:href="#DejaVuSans-67"/>
     <use x="425.837891" xlink:href="#DejaVuSans-69"/>
     <use x="453.621094" xlink:href="#DejaVuSans-6e"/>
     <use x="517" xlink:href="#DejaVuSans-67"/>
     <use x="580.476562" xlink:href="#DejaVuSans-20"/>
     <use x="612.263672" xlink:href="#DejaVuSans-74"/>
     <use x="651.472656" xlink:href="#DejaVuSans-69"/>
     <use x="679.255859" xlink:href="#DejaVuSans-6d"/>
     <use x="776.667969" xlink:href="#DejaVuSans-65"/>
     <use x="838.191406" xlink:href="#DejaVuSans-20"/>
     <use x="869.978516" xlink:href="#DejaVuSans-69"/>
     <use x="897.761719" xlink:href="#DejaVuSans-73"/>
     <use x="949.861328" xlink:href="#DejaVuSans-20"/>
     <use x="981.648438" xlink:href="#DejaVuSans-35"/>
     <use x="1045.271484" xlink:href="#DejaVuSans-2e"/>
     <use x="1077.058594" xlink:href="#DejaVuSans-36"/>
     <use x="1140.681641" xlink:href="#DejaVuSans-35"/>
     <use x="1204.304688" xlink:href="#DejaVuSans-73"/>
    </g>
   </g>
   <g id="text_17">
    <!-- The process of charging and discharching the capacitor in an -->
    <g transform="translate(170.391938 22.466625)scale(0.12 -0.12)">
     <defs>
      <path d="M -19 4666 
L 3928 4666 
L 3928 4134 
L 2272 4134 
L 2272 0 
L 1638 0 
L 1638 4134 
L -19 4134 
L -19 4666 
z
" id="DejaVuSans-54" transform="scale(0.015625)"/>
      <path d="M 1159 525 
L 1159 -1331 
L 581 -1331 
L 581 3500 
L 1159 3500 
L 1159 2969 
Q 1341 3281 1617 3432 
Q 1894 3584 2278 3584 
Q 2916 3584 3314 3078 
Q 3713 2572 3713 1747 
Q 3713 922 3314 415 
Q 2916 -91 2278 -91 
Q 1894 -91 1617 61 
Q 1341 213 1159 525 
z
M 3116 1747 
Q 3116 2381 2855 2742 
Q 2594 3103 2138 3103 
Q 1681 3103 1420 2742 
Q 1159 2381 1159 1747 
Q 1159 1113 1420 752 
Q 1681 391 2138 391 
Q 2594 391 2855 752 
Q 3116 1113 3116 1747 
z
" id="DejaVuSans-70" transform="scale(0.015625)"/>
      <path d="M 2375 4863 
L 2375 4384 
L 1825 4384 
Q 1516 4384 1395 4259 
Q 1275 4134 1275 3809 
L 1275 3500 
L 2222 3500 
L 2222 3053 
L 1275 3053 
L 1275 0 
L 697 0 
L 697 3053 
L 147 3053 
L 147 3500 
L 697 3500 
L 697 3744 
Q 697 4328 969 4595 
Q 1241 4863 1831 4863 
L 2375 4863 
z
" id="DejaVuSans-66" transform="scale(0.015625)"/>
     </defs>
     <use xlink:href="#DejaVuSans-54"/>
     <use x="61.083984" xlink:href="#DejaVuSans-68"/>
     <use x="124.462891" xlink:href="#DejaVuSans-65"/>
     <use x="185.986328" xlink:href="#DejaVuSans-20"/>
     <use x="217.773438" xlink:href="#DejaVuSans-70"/>
     <use x="281.25" xlink:href="#DejaVuSans-72"/>
     <use x="320.113281" xlink:href="#DejaVuSans-6f"/>
     <use x="381.294922" xlink:href="#DejaVuSans-63"/>
     <use x="436.275391" xlink:href="#DejaVuSans-65"/>
     <use x="497.798828" xlink:href="#DejaVuSans-73"/>
     <use x="549.898438" xlink:href="#DejaVuSans-73"/>
     <use x="601.998047" xlink:href="#DejaVuSans-20"/>
     <use x="633.785156" xlink:href="#DejaVuSans-6f"/>
     <use x="694.966797" xlink:href="#DejaVuSans-66"/>
     <use x="730.171875" xlink:href="#DejaVuSans-20"/>
     <use x="761.958984" xlink:href="#DejaVuSans-63"/>
     <use x="816.939453" xlink:href="#DejaVuSans-68"/>
     <use x="880.318359" xlink:href="#DejaVuSans-61"/>
     <use x="941.597656" xlink:href="#DejaVuSans-72"/>
     <use x="980.960938" xlink:href="#DejaVuSans-67"/>
     <use x="1044.4375" xlink:href="#DejaVuSans-69"/>
     <use x="1072.220703" xlink:href="#DejaVuSans-6e"/>
     <use x="1135.599609" xlink:href="#DejaVuSans-67"/>
     <use x="1199.076172" xlink:href="#DejaVuSans-20"/>
     <use x="1230.863281" xlink:href="#DejaVuSans-61"/>
     <use x="1292.142578" xlink:href="#DejaVuSans-6e"/>
     <use x="1355.521484" xlink:href="#DejaVuSans-64"/>
     <use x="1418.998047" xlink:href="#DejaVuSans-20"/>
     <use x="1450.785156" xlink:href="#DejaVuSans-64"/>
     <use x="1514.261719" xlink:href="#DejaVuSans-69"/>
     <use x="1542.044922" xlink:href="#DejaVuSans-73"/>
     <use x="1594.144531" xlink:href="#DejaVuSans-63"/>
     <use x="1649.125" xlink:href="#DejaVuSans-68"/>
     <use x="1712.503906" xlink:href="#DejaVuSans-61"/>
     <use x="1773.783203" xlink:href="#DejaVuSans-72"/>
     <use x="1812.646484" xlink:href="#DejaVuSans-63"/>
     <use x="1867.626953" xlink:href="#DejaVuSans-68"/>
     <use x="1931.005859" xlink:href="#DejaVuSans-69"/>
     <use x="1958.789062" xlink:href="#DejaVuSans-6e"/>
     <use x="2022.167969" xlink:href="#DejaVuSans-67"/>
     <use x="2085.644531" xlink:href="#DejaVuSans-20"/>
     <use x="2117.431641" xlink:href="#DejaVuSans-74"/>
     <use x="2156.640625" xlink:href="#DejaVuSans-68"/>
     <use x="2220.019531" xlink:href="#DejaVuSans-65"/>
     <use x="2281.542969" xlink:href="#DejaVuSans-20"/>
     <use x="2313.330078" xlink:href="#DejaVuSans-63"/>
     <use x="2368.310547" xlink:href="#DejaVuSans-61"/>
     <use x="2429.589844" xlink:href="#DejaVuSans-70"/>
     <use x="2493.066406" xlink:href="#DejaVuSans-61"/>
     <use x="2554.345703" xlink:href="#DejaVuSans-63"/>
     <use x="2609.326172" xlink:href="#DejaVuSans-69"/>
     <use x="2637.109375" xlink:href="#DejaVuSans-74"/>
     <use x="2676.318359" xlink:href="#DejaVuSans-6f"/>
     <use x="2737.5" xlink:href="#DejaVuSans-72"/>
     <use x="2778.613281" xlink:href="#DejaVuSans-20"/>
     <use x="2810.400391" xlink:href="#DejaVuSans-69"/>
     <use x="2838.183594" xlink:href="#DejaVuSans-6e"/>
     <use x="2901.5625" xlink:href="#DejaVuSans-20"/>
     <use x="2933.349609" xlink:href="#DejaVuSans-61"/>
     <use x="2994.628906" xlink:href="#DejaVuSans-6e"/>
    </g>
    <!-- RC circuit -->
    <g transform="translate(325.48725 35.904)scale(0.12 -0.12)">
     <defs>
      <path d="M 2841 2188 
Q 3044 2119 3236 1894 
Q 3428 1669 3622 1275 
L 4263 0 
L 3584 0 
L 2988 1197 
Q 2756 1666 2539 1819 
Q 2322 1972 1947 1972 
L 1259 1972 
L 1259 0 
L 628 0 
L 628 4666 
L 2053 4666 
Q 2853 4666 3247 4331 
Q 3641 3997 3641 3322 
Q 3641 2881 3436 2590 
Q 3231 2300 2841 2188 
z
M 1259 4147 
L 1259 2491 
L 2053 2491 
Q 2509 2491 2742 2702 
Q 2975 2913 2975 3322 
Q 2975 3731 2742 3939 
Q 2509 4147 2053 4147 
L 1259 4147 
z
" id="DejaVuSans-52" transform="scale(0.015625)"/>
      <path d="M 4122 4306 
L 4122 3641 
Q 3803 3938 3442 4084 
Q 3081 4231 2675 4231 
Q 1875 4231 1450 3742 
Q 1025 3253 1025 2328 
Q 1025 1406 1450 917 
Q 1875 428 2675 428 
Q 3081 428 3442 575 
Q 3803 722 4122 1019 
L 4122 359 
Q 3791 134 3420 21 
Q 3050 -91 2638 -91 
Q 1578 -91 968 557 
Q 359 1206 359 2328 
Q 359 3453 968 4101 
Q 1578 4750 2638 4750 
Q 3056 4750 3426 4639 
Q 3797 4528 4122 4306 
z
" id="DejaVuSans-43" transform="scale(0.015625)"/>
      <path d="M 544 1381 
L 544 3500 
L 1119 3500 
L 1119 1403 
Q 1119 906 1312 657 
Q 1506 409 1894 409 
Q 2359 409 2629 706 
Q 2900 1003 2900 1516 
L 2900 3500 
L 3475 3500 
L 3475 0 
L 2900 0 
L 2900 538 
Q 2691 219 2414 64 
Q 2138 -91 1772 -91 
Q 1169 -91 856 284 
Q 544 659 544 1381 
z
M 1991 3584 
L 1991 3584 
z
" id="DejaVuSans-75" transform="scale(0.015625)"/>
     </defs>
     <use xlink:href="#DejaVuSans-52"/>
     <use x="64.482422" xlink:href="#DejaVuSans-43"/>
     <use x="134.306641" xlink:href="#DejaVuSans-20"/>
     <use x="166.09375" xlink:href="#DejaVuSans-63"/>
     <use x="221.074219" xlink:href="#DejaVuSans-69"/>
     <use x="248.857422" xlink:href="#DejaVuSans-72"/>
     <use x="287.720703" xlink:href="#DejaVuSans-63"/>
     <use x="342.701172" xlink:href="#DejaVuSans-75"/>
     <use x="406.080078" xlink:href="#DejaVuSans-69"/>
     <use x="433.863281" xlink:href="#DejaVuSans-74"/>
    </g>
   </g>
   <g id="legend_1">
    <g id="patch_7">
     <path d="M 563.867938 64.582125 
L 614.432 64.582125 
Q 616.432 64.582125 616.432 62.582125 
L 616.432 48.904 
Q 616.432 46.904 614.432 46.904 
L 563.867938 46.904 
Q 561.867938 46.904 561.867938 48.904 
L 561.867938 62.582125 
Q 561.867938 64.582125 563.867938 64.582125 
z
" style="fill:#ffffff;opacity:0.8;stroke:#cccccc;stroke-linejoin:miter;"/>
    </g>
    <g id="line2d_112">
     <path d="M 565.867938 55.002437 
L 585.867938 55.002437 
" style="fill:none;stroke:#0000ff;stroke-linecap:square;"/>
    </g>
    <g id="line2d_113"/>
    <g id="text_18">
     <!-- V(t) -->
     <g transform="translate(593.867938 58.502437)scale(0.1 -0.1)">
      <use xlink:href="#DejaVuSans-56"/>
      <use x="68.408203" xlink:href="#DejaVuSans-28"/>
      <use x="107.421875" xlink:href="#DejaVuSans-74"/>
      <use x="146.630859" xlink:href="#DejaVuSans-29"/>
     </g>
    </g>
   </g>
  </g>
 </g>
 <defs>
  <clipPath id="p293f8c5cf7">
   <rect height="268.884" width="535.122" x="86.31" y="41.904"/>
  </clipPath>
 </defs>
</svg>
